<?xml version="1.0" encoding="UTF-8"?>
<svg width="64" height="64" version="1.1" viewBox="0 0 16.933 16.933" xmlns="http://www.w3.org/2000/svg" xmlns:cc="http://creativecommons.org/ns#" xmlns:dc="http://purl.org/dc/elements/1.1/" xmlns:rdf="http://www.w3.org/1999/02/22-rdf-syntax-ns#"><metadata><rdf:RDF><cc:Work rdf:about=""><dc:format>image/svg+xml</dc:format><dc:type rdf:resource="http://purl.org/dc/dcmitype/StillImage"/></cc:Work></rdf:RDF></metadata><path d="m8.494 1.2696c-0.21254-0.0049223-0.4224 0.048485-0.60656 0.15473l-5.2297 3.0195c-0.35868 0.20698-0.57965 0.58959-0.57967 1.0037v6.0386c2.05e-5 0.41411 0.22099 0.79672 0.57967 1.0037l5.2297 3.0191c0.35843 0.20682 0.79996 0.20682 1.1584 0l5.2297-3.0191c0.35868-0.20698 0.57965-0.5896 0.57967-1.0037v-6.0386c-2.1e-5 -0.41411-0.22099-0.79672-0.57967-1.0037l-5.2297-3.0195c-0.16812-0.096991-0.35783-0.15017-0.55186-0.15473z" color="#000000" color-rendering="auto" dominant-baseline="auto" fill="#e62020" image-rendering="auto" shape-rendering="auto" solid-color="#000000" style="font-feature-settings:normal;font-variant-alternates:normal;font-variant-caps:normal;font-variant-ligatures:normal;font-variant-numeric:normal;font-variant-position:normal;isolation:auto;mix-blend-mode:normal;paint-order:normal;shape-padding:0;text-decoration-color:#000000;text-decoration-line:none;text-decoration-style:solid;text-indent:0;text-orientation:mixed;text-transform:none;white-space:normal"/><path d="m5.9897 5.4129-1.1969 4.8445h1.8297c1.0549 0 2.0042-0.44279 2.2488-1.4325 0.050967-0.20631 0.056586-0.38378 0.026047-0.53422h0.52407l-0.95885 3.8809h1.1656l0.95883-3.8809h1.3153l0.2381-0.96367h-3.3521c0.19468-0.20553 0.34056-0.46711 0.40205-0.716 0.23004-0.93114-0.50493-1.1981-1.5077-1.1981zm0.94681 0.88559h0.48184c0.48836 0 0.68086 0.14324 0.5956 0.48836-0.082039 0.33207-0.3565 0.547-0.85136 0.547h-0.48192zm-0.46818 1.8948h0.5795c0.5665 0 0.8079 0.15633 0.70976 0.55352-0.10296 0.41674-0.4393 0.61855-0.9993 0.61855h-0.5795z" fill="#fff" style="font-feature-settings:normal;font-variant-caps:normal;font-variant-ligatures:normal;font-variant-numeric:normal"/></svg>
