<?xml version="1.0" encoding="UTF-8"?>
<svg width="64" height="64" version="1.1" viewBox="0 0 16.933 16.933" xmlns="http://www.w3.org/2000/svg" xmlns:cc="http://creativecommons.org/ns#" xmlns:dc="http://purl.org/dc/elements/1.1/" xmlns:rdf="http://www.w3.org/1999/02/22-rdf-syntax-ns#">
 <metadata>
  <rdf:RDF>
   <cc:Work rdf:about="">
    <dc:format>image/svg+xml</dc:format>
    <dc:type rdf:resource="http://purl.org/dc/dcmitype/StillImage"/>
   </cc:Work>
  </rdf:RDF>
 </metadata>
 <circle cx="8.4665" cy="8.4665" r="8.4665" fill="#e62020" stroke-linecap="round" stroke-width=".67136"/>
 <path d="m5.553 4.8745-1.4079 5.6986h2.1523c1.2409 0 2.3576-0.52086 2.6453-1.6851 0.059953-0.24268 0.066563-0.45144 0.030639-0.62841h0.61647l-1.1279 4.5651h1.3711l1.1279-4.5651h1.5472l0.28008-1.1336h-3.9431c0.229-0.24177 0.4006-0.54947 0.47294-0.84224 0.2706-1.0953-0.59395-1.4093-1.7735-1.4093zm1.1137 1.0417h0.56679c0.57446 0 0.8009 0.16849 0.70061 0.57446-0.096503 0.39062-0.41935 0.64344-1.0015 0.64344h-0.56689zm-0.55073 2.2289h0.68167c0.66638 0 0.95034 0.18389 0.8349 0.65111-0.12111 0.49022-0.51675 0.72761-1.1755 0.72761h-0.68167z" fill="#fff" stroke-width="1.1763" style="font-feature-settings:normal;font-variant-caps:normal;font-variant-ligatures:normal;font-variant-numeric:normal"/>
</svg>
